<mxfile host="app.diagrams.net" agent="Mozilla/5.0 (Windows NT 10.0; Win64; x64) AppleWebKit/537.36 (KHTML, like Gecko) Chrome/128.0.0.0 Safari/537.36" version="24.7.8">
  <diagram name="Page-1" id="74e2e168-ea6b-b213-b513-2b3c1d86103e">
    <mxGraphModel dx="925" dy="174" grid="1" gridSize="10" guides="1" tooltips="1" connect="1" arrows="1" fold="1" page="1" pageScale="1" pageWidth="1100" pageHeight="850" background="none" math="0" shadow="0">
      <root>
        <mxCell id="0" />
        <mxCell id="1" parent="0" />
        <mxCell id="t4RyebqHlUm4mss2FOWt-2" value="&lt;b&gt;Feed Stock Preperation&lt;/b&gt;&lt;div&gt;&lt;ul&gt;&lt;li&gt;Receive feedstock (vegetable oil, animal fat, or waste cooking oil).&lt;br&gt;&lt;/li&gt;&lt;li&gt;Filter and pre-treat the feedstock to remove impurities (e.g., water, solid particles).&lt;br&gt;&lt;/li&gt;&lt;/ul&gt;&lt;/div&gt;" style="shape=parallelogram;perimeter=parallelogramPerimeter;whiteSpace=wrap;html=1;fixedSize=1;" parent="1" vertex="1">
          <mxGeometry x="60" y="70" width="420" height="110" as="geometry" />
        </mxCell>
        <mxCell id="t4RyebqHlUm4mss2FOWt-3" value="Start" style="text;html=1;align=center;verticalAlign=middle;resizable=0;points=[];autosize=1;strokeColor=none;fillColor=none;" parent="1" vertex="1">
          <mxGeometry x="245" y="20" width="50" height="30" as="geometry" />
        </mxCell>
        <mxCell id="t4RyebqHlUm4mss2FOWt-4" value="&lt;b&gt;Heating and Mixing&lt;/b&gt;&lt;div&gt;&lt;ol&gt;&lt;li&gt;&lt;span style=&quot;background-color: initial;&quot;&gt;Heat the feedstock in the reactor to a specific temperature (e.g., 60°C).&lt;/span&gt;&lt;/li&gt;&lt;li&gt;&lt;span style=&quot;background-color: initial;&quot;&gt;Add a catalyst (usually potassium hydroxide or sodium hydroxide) to methanol to form methoxide solution.&lt;/span&gt;&lt;/li&gt;&lt;li&gt;&lt;span style=&quot;background-color: initial;&quot;&gt;Mix the methoxide solution with the heated feedstock in the reactor.&lt;/span&gt;&lt;b style=&quot;background-color: initial;&quot;&gt;&amp;nbsp;&lt;/b&gt;&lt;/li&gt;&lt;/ol&gt;&lt;/div&gt;" style="rounded=0;whiteSpace=wrap;html=1;" parent="1" vertex="1">
          <mxGeometry x="60" y="240" width="420" height="140" as="geometry" />
        </mxCell>
        <mxCell id="t4RyebqHlUm4mss2FOWt-5" value="" style="endArrow=classic;html=1;rounded=0;exitX=0.5;exitY=1;exitDx=0;exitDy=0;entryX=0.5;entryY=0;entryDx=0;entryDy=0;" parent="1" source="t4RyebqHlUm4mss2FOWt-2" target="t4RyebqHlUm4mss2FOWt-4" edge="1">
          <mxGeometry width="50" height="50" relative="1" as="geometry">
            <mxPoint x="250" y="320" as="sourcePoint" />
            <mxPoint x="300" y="270" as="targetPoint" />
          </mxGeometry>
        </mxCell>
        <mxCell id="t4RyebqHlUm4mss2FOWt-14" value="" style="edgeStyle=orthogonalEdgeStyle;rounded=0;orthogonalLoop=1;jettySize=auto;html=1;" parent="1" source="t4RyebqHlUm4mss2FOWt-6" target="t4RyebqHlUm4mss2FOWt-7" edge="1">
          <mxGeometry relative="1" as="geometry" />
        </mxCell>
        <mxCell id="t4RyebqHlUm4mss2FOWt-6" value="&lt;b&gt;Transesterification Reaction&lt;/b&gt;&lt;div&gt;&lt;ol&gt;&lt;li&gt;&lt;span style=&quot;background-color: initial;&quot;&gt;Maintain a controlled temperature and agitation in the reactor.&lt;/span&gt;&lt;/li&gt;&lt;li&gt;&lt;span style=&quot;background-color: initial;&quot;&gt;Allow the transesterification reaction to occur, converting triglycerides in the oil into biodiesel and glycerol.&lt;/span&gt;&lt;/li&gt;&lt;li&gt;&lt;span style=&quot;background-color: initial;&quot;&gt;Monitor reaction time (typically 1–2 hours) to ensure complete conversion.&lt;/span&gt;&lt;/li&gt;&lt;/ol&gt;&lt;/div&gt;" style="rounded=0;whiteSpace=wrap;html=1;" parent="1" vertex="1">
          <mxGeometry x="70" y="420" width="400" height="150" as="geometry" />
        </mxCell>
        <mxCell id="t4RyebqHlUm4mss2FOWt-15" value="" style="edgeStyle=orthogonalEdgeStyle;rounded=0;orthogonalLoop=1;jettySize=auto;html=1;" parent="1" source="t4RyebqHlUm4mss2FOWt-7" target="t4RyebqHlUm4mss2FOWt-11" edge="1">
          <mxGeometry relative="1" as="geometry" />
        </mxCell>
        <mxCell id="t4RyebqHlUm4mss2FOWt-7" value="&lt;b&gt;Separation of Biodiesel and Glycerol&lt;/b&gt;&lt;div&gt;&lt;ol&gt;&lt;li&gt;&lt;span style=&quot;background-color: initial;&quot;&gt;Allow the mixture to settle in a decanter or separator tank.&lt;/span&gt;&lt;/li&gt;&lt;li&gt;&lt;span style=&quot;background-color: initial;&quot;&gt;Separate the glycerol (heavier phase) from biodiesel (lighter phase).&lt;/span&gt;&lt;/li&gt;&lt;/ol&gt;&lt;/div&gt;" style="rounded=0;whiteSpace=wrap;html=1;" parent="1" vertex="1">
          <mxGeometry x="60" y="620" width="420" height="110" as="geometry" />
        </mxCell>
        <mxCell id="t4RyebqHlUm4mss2FOWt-8" value="" style="endArrow=classic;html=1;rounded=0;entryX=0.5;entryY=0;entryDx=0;entryDy=0;exitX=0.5;exitY=1;exitDx=0;exitDy=0;" parent="1" source="t4RyebqHlUm4mss2FOWt-4" target="t4RyebqHlUm4mss2FOWt-6" edge="1">
          <mxGeometry width="50" height="50" relative="1" as="geometry">
            <mxPoint x="220" y="550" as="sourcePoint" />
            <mxPoint x="270" y="500" as="targetPoint" />
          </mxGeometry>
        </mxCell>
        <mxCell id="t4RyebqHlUm4mss2FOWt-9" value="" style="endArrow=classic;html=1;rounded=0;entryX=0.5;entryY=0;entryDx=0;entryDy=0;exitX=0.5;exitY=1;exitDx=0;exitDy=0;" parent="1" source="t4RyebqHlUm4mss2FOWt-6" target="t4RyebqHlUm4mss2FOWt-7" edge="1">
          <mxGeometry width="50" height="50" relative="1" as="geometry">
            <mxPoint x="220" y="550" as="sourcePoint" />
            <mxPoint x="270" y="500" as="targetPoint" />
          </mxGeometry>
        </mxCell>
        <mxCell id="t4RyebqHlUm4mss2FOWt-17" value="" style="edgeStyle=orthogonalEdgeStyle;rounded=0;orthogonalLoop=1;jettySize=auto;html=1;" parent="1" source="t4RyebqHlUm4mss2FOWt-11" target="t4RyebqHlUm4mss2FOWt-16" edge="1">
          <mxGeometry relative="1" as="geometry" />
        </mxCell>
        <mxCell id="t4RyebqHlUm4mss2FOWt-11" value="&lt;b&gt;Washing and Purification of Biodiesel&lt;/b&gt;&lt;br&gt;&lt;div&gt;&lt;ol&gt;&lt;li&gt;&lt;span style=&quot;background-color: initial;&quot;&gt;Wash the crude biodiesel with water to remove residual catalysts, methanol, and impurities.&lt;/span&gt;&lt;/li&gt;&lt;li&gt;&lt;span style=&quot;background-color: initial;&quot;&gt;Separate and remove the wash water.&lt;/span&gt;&lt;/li&gt;&lt;li&gt;&lt;span style=&quot;background-color: initial;&quot;&gt;Dry the biodiesel to remove any remaining moisture.&lt;/span&gt;&lt;/li&gt;&lt;/ol&gt;&lt;/div&gt;" style="rounded=0;whiteSpace=wrap;html=1;" parent="1" vertex="1">
          <mxGeometry x="70" y="780" width="400" height="150" as="geometry" />
        </mxCell>
        <mxCell id="t4RyebqHlUm4mss2FOWt-19" value="" style="edgeStyle=orthogonalEdgeStyle;rounded=0;orthogonalLoop=1;jettySize=auto;html=1;" parent="1" source="t4RyebqHlUm4mss2FOWt-16" target="t4RyebqHlUm4mss2FOWt-18" edge="1">
          <mxGeometry relative="1" as="geometry" />
        </mxCell>
        <mxCell id="t4RyebqHlUm4mss2FOWt-16" value="&lt;b&gt;Methanol Recovery (Optional)&lt;/b&gt;&lt;br&gt;&lt;div&gt;&lt;ol&gt;&lt;li&gt;Recover excess methanol from both biodiesel and glycerol phases using a distillation unit.&lt;/li&gt;&lt;li&gt;Recycle recovered methanol back into the process to reduce waste.&lt;/li&gt;&lt;/ol&gt;&lt;/div&gt;" style="rounded=0;whiteSpace=wrap;html=1;" parent="1" vertex="1">
          <mxGeometry x="70" y="970" width="400" height="150" as="geometry" />
        </mxCell>
        <mxCell id="t4RyebqHlUm4mss2FOWt-21" value="" style="edgeStyle=orthogonalEdgeStyle;rounded=0;orthogonalLoop=1;jettySize=auto;html=1;" parent="1" source="t4RyebqHlUm4mss2FOWt-18" target="t4RyebqHlUm4mss2FOWt-20" edge="1">
          <mxGeometry relative="1" as="geometry" />
        </mxCell>
        <mxCell id="t4RyebqHlUm4mss2FOWt-18" value="&lt;b&gt;Quality Control and Storage&lt;/b&gt;&lt;br&gt;&lt;div&gt;&lt;ol&gt;&lt;li&gt;Test the biodiesel for quality parameters (e.g., viscosity, density, flash point, and acid value).&lt;/li&gt;&lt;li&gt;Store the finished biodiesel in a dedicated storage tank for further distribution.&lt;/li&gt;&lt;/ol&gt;&lt;/div&gt;" style="rounded=0;whiteSpace=wrap;html=1;" parent="1" vertex="1">
          <mxGeometry x="70" y="1160" width="400" height="150" as="geometry" />
        </mxCell>
        <mxCell id="t4RyebqHlUm4mss2FOWt-20" value="&lt;b&gt;Glycerol Refinement (Optional)&lt;/b&gt;&lt;div&gt;&lt;ol&gt;&lt;li&gt;&lt;span style=&quot;background-color: initial;&quot;&gt;Purify the separated glycerol to remove impurities and methanol.&lt;/span&gt;&lt;/li&gt;&lt;li&gt;&lt;span style=&quot;background-color: initial;&quot;&gt;Store purified glycerol for sale or other applications&lt;/span&gt;&lt;/li&gt;&lt;/ol&gt;&lt;/div&gt;" style="shape=parallelogram;perimeter=parallelogramPerimeter;whiteSpace=wrap;html=1;fixedSize=1;" parent="1" vertex="1">
          <mxGeometry x="90" y="1350" width="360" height="130" as="geometry" />
        </mxCell>
        <mxCell id="t4RyebqHlUm4mss2FOWt-23" value="End" style="text;html=1;align=center;verticalAlign=middle;resizable=0;points=[];autosize=1;strokeColor=none;fillColor=none;" parent="1" vertex="1">
          <mxGeometry x="250" y="1490" width="40" height="30" as="geometry" />
        </mxCell>
        <mxCell id="8if-JDdqtg0ylNht0u7f-4" value="" style="edgeStyle=none;curved=1;rounded=0;orthogonalLoop=1;jettySize=auto;html=1;fontSize=12;startSize=8;endSize=8;" parent="1" source="t4RyebqHlUm4mss2FOWt-24" target="8if-JDdqtg0ylNht0u7f-3" edge="1">
          <mxGeometry relative="1" as="geometry" />
        </mxCell>
        <mxCell id="t4RyebqHlUm4mss2FOWt-24" value="&lt;b&gt;Feed Stock Preperation&lt;/b&gt;&lt;div&gt;&lt;ul&gt;&lt;li&gt;Receive Feed, Open Valve XV-T8051 and XCV-T8001&lt;/li&gt;&lt;/ul&gt;&lt;/div&gt;" style="shape=parallelogram;perimeter=parallelogramPerimeter;whiteSpace=wrap;html=1;fixedSize=1;" parent="1" vertex="1">
          <mxGeometry x="612.5" y="70" width="387.5" height="80" as="geometry" />
        </mxCell>
        <mxCell id="t4RyebqHlUm4mss2FOWt-25" value="Start" style="text;html=1;align=center;verticalAlign=middle;resizable=0;points=[];autosize=1;strokeColor=none;fillColor=none;" parent="1" vertex="1">
          <mxGeometry x="781.25" y="30" width="50" height="30" as="geometry" />
        </mxCell>
        <mxCell id="oc6gEqGckYcG9uGj89MP-2" value="" style="edgeStyle=orthogonalEdgeStyle;rounded=0;orthogonalLoop=1;jettySize=auto;html=1;" parent="1" source="8if-JDdqtg0ylNht0u7f-3" target="oc6gEqGckYcG9uGj89MP-1" edge="1">
          <mxGeometry relative="1" as="geometry" />
        </mxCell>
        <mxCell id="8if-JDdqtg0ylNht0u7f-3" value="&lt;b&gt;Heating and Mixing&lt;/b&gt;&lt;div&gt;&lt;ol&gt;&lt;/ol&gt;&lt;/div&gt;&lt;div&gt;Maintain 60 degree temperature using TCV-R8051A as an inlet of jacket and TCV-R8051B as an outlet , controlled via temperature sensor TT-R8051&lt;/div&gt;" style="whiteSpace=wrap;html=1;" parent="1" vertex="1">
          <mxGeometry x="693.75" y="210" width="225" height="100" as="geometry" />
        </mxCell>
        <mxCell id="riMBmpDuD5b-Gm7LgzDz-2" value="" style="edgeStyle=orthogonalEdgeStyle;rounded=0;orthogonalLoop=1;jettySize=auto;html=1;" edge="1" parent="1" source="oc6gEqGckYcG9uGj89MP-1" target="riMBmpDuD5b-Gm7LgzDz-1">
          <mxGeometry relative="1" as="geometry" />
        </mxCell>
        <mxCell id="oc6gEqGckYcG9uGj89MP-1" value="&lt;b&gt;Transesterification Reaction&lt;/b&gt;&lt;div&gt;&lt;ol&gt;&lt;/ol&gt;&lt;/div&gt;&lt;div&gt;Stir Agitator for A-R8051 1 to 2 Hours&lt;/div&gt;" style="whiteSpace=wrap;html=1;" parent="1" vertex="1">
          <mxGeometry x="693.75" y="360" width="225" height="100" as="geometry" />
        </mxCell>
        <mxCell id="riMBmpDuD5b-Gm7LgzDz-1" value="&lt;b&gt;Seperator&amp;nbsp;&lt;/b&gt;&lt;div&gt;Allow mixture to be settled in for 3 hr&lt;/div&gt;" style="whiteSpace=wrap;html=1;" vertex="1" parent="1">
          <mxGeometry x="746.25" y="510" width="120" height="60" as="geometry" />
        </mxCell>
        <mxCell id="riMBmpDuD5b-Gm7LgzDz-4" value="Open FBV XCV-R8051" style="text;html=1;align=center;verticalAlign=middle;resizable=0;points=[];autosize=1;strokeColor=none;fillColor=none;" vertex="1" parent="1">
          <mxGeometry x="840" y="470" width="150" height="30" as="geometry" />
        </mxCell>
      </root>
    </mxGraphModel>
  </diagram>
</mxfile>
